# xmcd
#
# Track frame offsets: 
#        150
#        17114
#        32911
#        49542
#        70564
#        89010
#        103400
#        121717
#        139533
#        161084
#
# Disc length: 2386 seconds
#
# Revision: 0
# Processed by: cddbd v1.5.2PL0 Copyright (c) Steve Scherf et al.
# Submitted via: ExactAudioCopyFreeDBPlugin 1.0
#
DISCID=8109500a
DTITLE=J-Rocks - Let's Go!!
DYEAR=2017
DGENRE=Rock
TTITLE0=Kamu Aku Dan Kalian
TTITLE1=Dance
TTITLE2=Tiket Ke Surga
TTITLE3=Tulisan Takdir Dunia
TTITLE4=Selamat Jalan
TTITLE5=Fly Away
TTITLE6=Demikianlah
TTITLE7=10 Commandement
TTITLE8=Mengertilah Cinta
TTITLE9=Lagu Rindu
EXTD=
EXTT0=
EXTT1=
EXTT2=
EXTT3=
EXTT4=
EXTT5=
EXTT6=
EXTT7=
EXTT8=
EXTT9=
PLAYORDER=
